<?xml version="1.0" encoding="UTF-8"?>
<svg width="634px" height="138px" viewBox="0 0 634 138" version="1.1" xmlns="http://www.w3.org/2000/svg" xmlns:xlink="http://www.w3.org/1999/xlink">
    <title>Group 2</title>
    <defs>
        <filter id="filter-1">
            <feColorMatrix in="SourceGraphic" type="matrix" values="0 0 0 0 0.000000 0 0 0 0 0.000000 0 0 0 0 0.000000 0 0 0 1.000000 0"></feColorMatrix>
        </filter>
    </defs>
    <g id="Symbols" stroke="none" stroke-width="1" fill="none" fill-rule="evenodd">
        <g id="Group-2" transform="translate(0.000000, 0.200000)">
            <g filter="url(#filter-1)" id="Group">
                <g transform="translate(172.000000, 41.000000)">
                    <path d="M14.1,12.5 L14.1,41.5 L19.9,41.5 C28.5,41.5 32.9,36.7 32.9,27.2 C32.9,22.5 31.8,18.9 29.6,16.3 C27.4,13.7 24.2,12.5 20.1,12.5 L14.1,12.5 Z M21.4,53.5 L0.6,53.5 L0.6,0.5 L18.4,0.5 C25.4,0.5 31,1.8 35.1,4.3 C37.6,5.8 39.7,7.9 41.5,10.4 C44.7,14.9 46.3,20.4 46.3,26.8 C46.3,34.9 44,41.3 39.5,46.2 C34.9,51.1 28.9,53.5 21.4,53.5 L21.4,53.5 Z" id="Fill-1" fill="#FFFFFE"></path>
                    <path d="M64.5,53.5 L52.6,53.5 L52.6,13.7 L63.9,13.7 L63.9,17.9 C66,14.2 69.2,12.3 73.5,12.3 L73.8,12.3 L73.8,24.3 C70.4,24.4 68,24.9 66.6,26 C65.2,27.1 64.5,28.9 64.5,31.5 L64.5,53.5" id="Fill-2" fill="#FFFFFE"></path>
                    <path d="M98,23.4 C95.3,23.4 93,24.4 91.2,26.3 C89.3,28.3 88.4,30.6 88.4,33.5 C88.4,36.4 89.3,38.9 91.1,40.8 C92.9,42.8 95.2,43.7 98,43.7 C100.7,43.7 103,42.7 104.8,40.8 C106.6,38.8 107.5,36.4 107.5,33.5 C107.5,30.7 106.6,28.3 104.8,26.3 C102.9,24.4 100.7,23.4 98,23.4 Z M98,54.8 C91.8,54.8 86.7,52.8 82.6,48.8 C78.5,44.8 76.5,39.8 76.5,33.8 C76.5,27.6 78.5,22.5 82.6,18.4 C86.7,14.3 91.8,12.3 98,12.3 C104.1,12.3 109.3,14.3 113.3,18.3 C117.4,22.3 119.4,27.4 119.4,33.5 C119.4,39.6 117.4,44.7 113.3,48.7 C109.2,52.8 104.1,54.8 98,54.8 L98,54.8 Z" id="Fill-3" fill="#FFFFFE"></path>
                    <path d="M137.5,53.5 L125.6,53.5 L125.6,13.7 L136.9,13.7 L136.9,17.9 C139.5,14.2 143.1,12.3 147.8,12.3 C152.1,12.3 155.7,13.7 158.5,16.4 C160,17.9 161.1,19.5 161.6,21.2 C162.2,22.9 162.4,25.3 162.4,28.6 L162.4,53.5 L150.5,53.5 L150.5,31.7 C150.5,26.2 148.4,23.4 144.3,23.4 C139.8,23.4 137.5,26 137.5,31.2 L137.5,53.5" id="Fill-4" fill="#FFFFFE"></path>
                    <path d="M180.1,29.4 L198,29.4 C197.6,27.3 196.5,25.7 194.9,24.4 C193.3,23.1 191.3,22.5 189,22.5 C184.1,22.5 181.1,24.8 180.1,29.4 Z M195.9,41.6 L196.5,41 L208.6,41 C206.7,45.3 204.1,48.7 200.7,51.1 C197.3,53.5 193.5,54.8 189.3,54.8 C183.5,54.8 178.5,52.7 174.5,48.6 C170.5,44.5 168.4,39.5 168.4,33.6 C168.4,27.7 170.4,22.6 174.4,18.5 C178.4,14.4 183.3,12.3 189,12.3 C194.9,12.3 199.9,14.4 203.9,18.5 C207.9,22.7 209.9,27.8 209.9,34 C209.9,35 209.8,36 209.6,37.3 L179.8,37.3 C180.1,39.5 181,41.3 182.6,42.7 C184.2,44.1 186.2,44.7 188.5,44.7 C191.2,44.7 193.6,43.7 195.9,41.6 L195.9,41.6 Z" id="Fill-5" fill="#FFFFFE"></path>
                    <path d="M225.1,7.6 L225.1,46.4 L231.4,46.4 C238.5,46.4 243.9,44.9 247.5,41.9 C251.8,38.4 253.9,33.5 253.9,27.2 C253.9,21.5 252,16.8 248.3,12.9 C244.8,9.4 240.2,7.6 234.6,7.6 L225.1,7.6 Z M233.9,53.5 L217.4,53.5 L217.4,0.5 L236.2,0.5 C243.5,0.5 249.4,2.9 254,7.6 C259.1,12.9 261.7,19.5 261.7,27.3 C261.7,34.8 259.5,40.9 255,45.8 C250.4,50.9 243.3,53.5 233.9,53.5 L233.9,53.5 Z" id="Fill-6" fill="#FFFFFE"></path>
                    <path d="M277.4,23.5 C275.8,25.3 274.8,27.8 274.3,31.1 L300,31.1 C299.8,27.8 298.5,25 296,22.7 C293.5,20.4 290.6,19.2 287.2,19.2 C283.2,19.2 280,20.7 277.4,23.5 Z M298.7,41 L306.2,41 C304.7,45.1 302.3,48.4 298.8,50.9 C295.4,53.3 291.5,54.6 287.2,54.6 C281.6,54.6 276.9,52.5 272.9,48.4 C268.9,44.3 266.9,39.4 266.9,33.6 C266.9,27.8 268.9,22.8 272.9,18.7 C276.9,14.6 281.7,12.5 287.4,12.5 C292.9,12.5 297.6,14.5 301.6,18.6 C305.5,22.7 307.5,27.5 307.5,33.2 C307.5,34 307.4,35.3 307.3,37 L274.5,37 C275.3,40.3 276.9,42.9 279.2,44.9 C281.6,46.9 284.4,47.9 287.6,47.9 C292.3,47.7 296.1,45.5 298.7,41 L298.7,41 Z" id="Fill-7" fill="#FFFFFE"></path>
                    <path d="M335.5,47.8 C339.3,47.8 342.4,46.4 345,43.7 C347.6,41 348.9,37.7 348.9,33.8 C348.9,29.9 347.6,26.6 344.9,23.8 C342.2,21 339,19.6 335.2,19.6 C331.5,19.6 328.4,21 325.8,23.7 C323.2,26.4 321.9,29.7 321.9,33.6 C321.9,37.6 323.2,40.9 325.8,43.7 C328.5,46.4 331.7,47.8 335.5,47.8 Z M321.9,66.8 L314.7,66.8 L314.7,13.8 L321.6,13.8 L321.6,19.9 C324.8,15.1 329.5,12.7 335.7,12.7 C341.5,12.7 346.4,14.8 350.3,18.9 C354.2,23 356.2,28.1 356.2,34.2 C356.2,40 354.3,44.8 350.4,48.7 C346.5,52.6 341.8,54.6 336.1,54.6 C329.5,54.6 324.8,52.3 321.9,47.8 L321.9,66.8 L321.9,66.8 Z" id="Fill-8" fill="#FFFFFE"></path>
                    <polygon id="Fill-9" fill="#FFFFFE" points="363.6 53.5 371 53.5 371 0.5 363.6 0.5"></polygon>
                    <path d="M399.7,47.7 C403.6,47.7 406.9,46.3 409.6,43.6 C412.3,40.8 413.7,37.5 413.7,33.6 C413.7,29.8 412.3,26.5 409.6,23.7 C406.9,21 403.6,19.6 399.7,19.6 C395.8,19.6 392.5,21 389.8,23.7 C387.1,26.4 385.7,29.7 385.7,33.6 C385.7,37.5 387.1,40.8 389.8,43.6 C392.5,46.3 395.8,47.7 399.7,47.7 Z M399.7,12.7 C405.6,12.7 410.7,14.7 414.9,18.7 C419.1,22.7 421.2,27.6 421.2,33.3 C421.2,39.1 419.1,44.1 414.9,48.2 C410.7,52.3 405.7,54.4 399.7,54.4 C393.8,54.4 388.8,52.3 384.6,48.2 C380.4,44.1 378.3,39.1 378.3,33.3 C378.3,27.6 380.4,22.7 384.6,18.7 C388.8,14.7 393.8,12.7 399.7,12.7 L399.7,12.7 Z" id="Fill-10" fill="#FFFFFE"></path>
                    <polyline id="Fill-11" fill="#FFFFFE" points="453.7 13.7 461.7 13.7 439.8 66.7 432.1 66.7 437.9 52.6 422.1 13.7 430.1 13.7 441.8 44.5 453.7 13.7"></polyline>
                </g>
            </g>
            <path d="M101.7,46.4 L101.7,46.4 L45.1,46.8 C40,47.2 30.2,54.4 30.2,54.4 L62.7,68.9 L59,104.3 C59,104.3 70.1,99.4 73,95.2 L101.7,46.4 M68.4,125.8 C36.7,125.8 11,100.1 11,68.4 C11,36.7 36.7,11 68.4,11 C100.1,11 125.8,36.7 125.8,68.4 C125.8,100.1 100.1,125.8 68.4,125.8 Z M68.4,0 C30.6,0 -3.69482223e-13,30.7 -3.69482223e-13,68.4 C-3.69482223e-13,106.1 30.6,136.8 68.4,136.8 C106.2,136.8 136.8,106.2 136.8,68.4 C136.8,30.6 106.2,0 68.4,0 L68.4,0 Z" id="Logo-Icon" fill="#2183F3"></path>
        </g>
    </g>
</svg>