<?xml version="1.0" encoding="UTF-8"?>
<svg width="94px" height="94px" viewBox="0 0 94 94" version="1.1" xmlns="http://www.w3.org/2000/svg" xmlns:xlink="http://www.w3.org/1999/xlink">
    <title>Icon/video play</title>
    <defs>
        <polygon id="path-1" points="0 0 136 0 136 136 0 136"></polygon>
    </defs>
    <g id="Final-Design:-Desktop-&amp;-Mobile" stroke="none" stroke-width="1" fill="none" fill-rule="evenodd" opacity="0.8">
        <g id="1440-Blog-hub---3-featured-articles" transform="translate(-1077.000000, -359.000000)">
            <g id="DDC20" transform="translate(949.000000, 321.000000)">
                <g id="vertical" transform="translate(107.000000, 17.000000)">
                    <mask id="mask-2" fill="white">
                        <use xlink:href="#path-1"></use>
                    </mask>
                    <g id="a"></g>
                    <path d="M68,21.76 C80.8015274,21.76 91.616611,26.3950358 100.555609,35.4443914 C109.604964,44.383389 114.24,55.1984726 114.24,68 C114.24,80.5916663 109.862456,91.3682536 101.00235,100.329762 L100.555609,100.776325 C91.726969,109.715322 80.8015274,114.24 68,114.24 C55.4083337,114.24 44.5249771,109.969226 35.6649873,101.217639 L35.2236754,100.776325 C26.1743198,91.837327 21.76,80.8015274 21.76,68 C21.76,55.4083337 26.1375437,44.6317464 34.787612,35.8802763 L35.2236754,35.4443914 C44.273031,26.2846778 55.1984726,21.76 68,21.76 Z M60.3979489,49.2080192 C59.6101713,48.7380192 58.5650793,48.9557213 58.0637357,49.6943107 C57.8910905,49.9486378 57.7993763,50.2438449 57.7993763,50.5453051 L57.7993763,50.5453051 L57.7993763,85.4548822 C57.7993763,86.3302824 58.5563568,87.04 59.4902031,87.04 C59.8117671,87.04 60.1266612,86.9540197 60.3979489,86.7921681 L60.3979489,86.7921681 L89.6560956,69.3374424 C90.4439404,68.8674424 90.6761607,67.8876887 90.1748171,67.1490993 C90.0419714,66.953355 89.8648938,66.7873481 89.6560956,66.6628078 L89.6560956,66.6628078 Z" id="Combined-Shape" fill="#FFFFFF" mask="url(#mask-2)"></path>
                </g>
            </g>
        </g>
    </g>
</svg>